# xmcd CD database file
#
# Track frame offsets:
#	150
#	10327
#	22567
#	40430
#	62612
#	78852
#	100922
#	115510
#	146480
#	169287
#	185122
#	197972
#	208827
#	220075
#	231572
#	249270
#	262822
#	278875
#	306262
#	327987
#
# Disc length: 4570 seconds
#
# Revision: 0
# Processed by: cddbd v1.4PL0 Copyright (c) Steve Scherf et al.
# Submitted via: Feurio! 1.63 - http://www.feurio.com
#
DISCID=1c11d814
DTITLE=Nina Simone - The Masters - 20 Classic Tracks
DYEAR=1997
DGENRE=blues
TTITLE0=Ain't Got No - I Got Life
TTITLE1=To Love Somebody
TTITLE2=I Shall Be Released
TTITLE3=Just Like Tom Thumb's Blues
TTITLE4=Here Comes The Sun
TTITLE5=Just Like A Woman
TTITLE6=Gin House Blues
TTITLE7=To Be Young, Gifted And Black
TTITLE8=Mr. Bojangles
TTITLE9=Let It Be Me
TTITLE10=Since I Fell For You
TTITLE11=The Look Of Love
TTITLE12=Backlash Blues
TTITLE13=I Want A Little Sugar In My Bowl
TTITLE14=The House Of The Rising Sun
TTITLE15=Do What You Gotta Do
TTITLE16=Angel Of The Morning
TTITLE17=The Times They Are A-Changin'
TTITLE18=I Get Along Without You Very Well (Except Sometimes)
TTITLE19=O-O-H Child
EXTD=
EXTT0=
EXTT1=
EXTT2=
EXTT3=
EXTT4=
EXTT5=
EXTT6=
EXTT7=
EXTT8=
EXTT9=
EXTT10=
EXTT11=
EXTT12=
EXTT13=
EXTT14=
EXTT15=
EXTT16=
EXTT17=
EXTT18=
EXTT19=
PLAYORDER=
